<?xml version="1.0" encoding="utf-8" ?>
<svg baseProfile="tiny" height="200" version="1.2" width="200" xmlns="http://www.w3.org/2000/svg" xmlns:ev="http://www.w3.org/2001/xml-events" xmlns:xlink="http://www.w3.org/1999/xlink"><defs /><path d="M 98 17 L 99 18 M 100 17 L 101 18 M 101 17 L 102 18 M 98 18 L 99 19 M 100 18 L 101 19 M 97 19 L 98 20 M 99 19 L 100 20 M 100 19 L 101 20 M 96 20 L 97 21 M 99 20 L 100 21 M 95 21 L 96 22 M 96 21 L 97 22 M 98 21 L 99 22 M 94 22 L 95 23 M 95 22 L 96 23 M 98 22 L 99 23 M 94 23 L 95 24 M 98 23 L 99 24 M 93 24 L 94 25 M 94 24 L 95 25 M 97 24 L 98 25 M 92 25 L 93 26 M 93 25 L 94 26 M 97 25 L 98 26 M 92 26 L 93 27 M 97 26 L 98 27 M 91 27 L 92 28 M 92 27 L 93 28 M 97 27 L 98 28 M 90 28 L 91 29 M 91 28 L 92 29 M 97 28 L 98 29 M 90 29 L 91 30 M 97 29 L 98 30 M 89 30 L 90 31 M 90 30 L 91 31 M 97 30 L 98 31 M 89 31 L 90 32 M 97 31 L 98 32 M 89 32 L 90 33 M 97 32 L 98 33 M 88 33 L 89 34 M 97 33 L 98 34 M 88 34 L 89 35 M 98 34 L 99 35 M 88 35 L 89 36 M 98 35 L 99 36 M 88 36 L 89 37 M 98 36 L 99 37 M 87 37 L 88 38 M 98 37 L 99 38 M 87 38 L 88 39 M 98 38 L 99 39 M 87 39 L 88 40 M 99 39 L 100 40 M 87 40 L 88 41 M 99 40 L 100 41 M 87 41 L 88 42 M 100 41 L 101 42 M 87 42 L 88 43 M 100 42 L 101 43 M 87 43 L 88 44 M 100 43 L 101 44 M 101 43 L 102 44 M 87 44 L 88 45 M 101 44 L 102 45 M 87 45 L 88 46 M 101 45 L 102 46 M 102 45 L 103 46 M 87 46 L 88 47 M 102 46 L 103 47 M 103 46 L 104 47 M 87 47 L 88 48 M 103 47 L 104 48 M 104 47 L 105 48 M 87 48 L 88 49 M 104 48 L 105 49 M 87 49 L 88 50 M 104 49 L 105 50 M 105 49 L 106 50 M 87 50 L 88 51 M 105 50 L 106 51 M 106 50 L 107 51 M 87 51 L 88 52 M 106 51 L 107 52 M 107 51 L 108 52 M 88 52 L 89 53 M 107 52 L 108 53 M 108 52 L 109 53 M 88 53 L 89 54 M 108 53 L 109 54 M 109 53 L 110 54 M 88 54 L 89 55 M 109 54 L 110 55 M 88 55 L 89 56 M 107 55 L 108 56 M 108 55 L 109 56 M 109 55 L 110 56 M 110 55 L 111 56 M 111 55 L 112 56 M 112 55 L 113 56 M 113 55 L 114 56 M 114 55 L 115 56 M 115 55 L 116 56 M 116 55 L 117 56 M 117 55 L 118 56 M 118 55 L 119 56 M 119 55 L 120 56 M 120 55 L 121 56 M 172 55 L 173 56 M 173 55 L 174 56 M 89 56 L 90 57 M 105 56 L 106 57 M 106 56 L 107 57 M 121 56 L 122 57 M 122 56 L 123 57 M 123 56 L 124 57 M 124 56 L 125 57 M 125 56 L 126 57 M 171 56 L 172 57 M 172 56 L 173 57 M 89 57 L 90 58 M 90 57 L 91 58 M 103 57 L 104 58 M 104 57 L 105 58 M 105 57 L 106 58 M 126 57 L 127 58 M 127 57 L 128 58 M 128 57 L 129 58 M 129 57 L 130 58 M 130 57 L 131 58 M 131 57 L 132 58 M 170 57 L 171 58 M 171 57 L 172 58 M 90 58 L 91 59 M 102 58 L 103 59 M 103 58 L 104 59 M 132 58 L 133 59 M 133 58 L 134 59 M 134 58 L 135 59 M 135 58 L 136 59 M 136 58 L 137 59 M 168 58 L 169 59 M 169 58 L 170 59 M 170 58 L 171 59 M 90 59 L 91 60 M 91 59 L 92 60 M 100 59 L 101 60 M 101 59 L 102 60 M 102 59 L 103 60 M 137 59 L 138 60 M 138 59 L 139 60 M 139 59 L 140 60 M 140 59 L 141 60 M 167 59 L 168 60 M 168 59 L 169 60 M 91 60 L 92 61 M 99 60 L 100 61 M 100 60 L 101 61 M 141 60 L 142 61 M 142 60 L 143 61 M 143 60 L 144 61 M 144 60 L 145 61 M 165 60 L 166 61 M 166 60 L 167 61 M 167 60 L 168 61 M 91 61 L 92 62 M 92 61 L 93 62 M 98 61 L 99 62 M 99 61 L 100 62 M 145 61 L 146 62 M 146 61 L 147 62 M 147 61 L 148 62 M 148 61 L 149 62 M 163 61 L 164 62 M 164 61 L 165 62 M 165 61 L 166 62 M 92 62 L 93 63 M 93 62 L 94 63 M 96 62 L 97 63 M 97 62 L 98 63 M 98 62 L 99 63 M 149 62 L 150 63 M 150 62 L 151 63 M 151 62 L 152 63 M 160 62 L 161 63 M 161 62 L 162 63 M 162 62 L 163 63 M 50 63 L 51 64 M 51 63 L 52 64 M 52 63 L 53 64 M 53 63 L 54 64 M 54 63 L 55 64 M 55 63 L 56 64 M 56 63 L 57 64 M 57 63 L 58 64 M 58 63 L 59 64 M 59 63 L 60 64 M 60 63 L 61 64 M 61 63 L 62 64 M 93 63 L 94 64 M 94 63 L 95 64 M 95 63 L 96 64 M 96 63 L 97 64 M 152 63 L 153 64 M 153 63 L 154 64 M 156 63 L 157 64 M 157 63 L 158 64 M 158 63 L 159 64 M 159 63 L 160 64 M 46 64 L 47 65 M 47 64 L 48 65 M 48 64 L 49 65 M 49 64 L 50 65 M 62 64 L 63 65 M 63 64 L 64 65 M 64 64 L 65 65 M 65 64 L 66 65 M 153 64 L 154 65 M 154 64 L 155 65 M 155 64 L 156 65 M 156 64 L 157 65 M 43 65 L 44 66 M 44 65 L 45 66 M 45 65 L 46 66 M 66 65 L 67 66 M 67 65 L 68 66 M 68 65 L 69 66 M 93 65 L 94 66 M 94 65 L 95 66 M 155 65 L 156 66 M 156 65 L 157 66 M 40 66 L 41 67 M 41 66 L 42 67 M 42 66 L 43 67 M 69 66 L 70 67 M 70 66 L 71 67 M 92 66 L 93 67 M 93 66 L 94 67 M 156 66 L 157 67 M 157 66 L 158 67 M 37 67 L 38 68 M 38 67 L 39 68 M 39 67 L 40 68 M 70 67 L 71 68 M 71 67 L 72 68 M 72 67 L 73 68 M 91 67 L 92 68 M 92 67 L 93 68 M 157 67 L 158 68 M 158 67 L 159 68 M 35 68 L 36 69 M 36 68 L 37 69 M 37 68 L 38 69 M 72 68 L 73 69 M 73 68 L 74 69 M 74 68 L 75 69 M 91 68 L 92 69 M 158 68 L 159 69 M 33 69 L 34 70 M 34 69 L 35 70 M 35 69 L 36 70 M 74 69 L 75 70 M 75 69 L 76 70 M 90 69 L 91 70 M 91 69 L 92 70 M 158 69 L 159 70 M 159 69 L 160 70 M 31 70 L 32 71 M 32 70 L 33 71 M 33 70 L 34 71 M 75 70 L 76 71 M 76 70 L 77 71 M 89 70 L 90 71 M 90 70 L 91 71 M 159 70 L 160 71 M 160 70 L 161 71 M 30 71 L 31 72 M 31 71 L 32 72 M 76 71 L 77 72 M 77 71 L 78 72 M 88 71 L 89 72 M 89 71 L 90 72 M 160 71 L 161 72 M 28 72 L 29 73 M 29 72 L 30 73 M 30 72 L 31 73 M 49 72 L 50 73 M 50 72 L 51 73 M 51 72 L 52 73 M 52 72 L 53 73 M 53 72 L 54 73 M 54 72 L 55 73 M 55 72 L 56 73 M 56 72 L 57 73 M 57 72 L 58 73 M 58 72 L 59 73 M 59 72 L 60 73 M 60 72 L 61 73 M 77 72 L 78 73 M 78 72 L 79 73 M 88 72 L 89 73 M 160 72 L 161 73 M 161 72 L 162 73 M 27 73 L 28 74 M 28 73 L 29 74 M 44 73 L 45 74 M 45 73 L 46 74 M 46 73 L 47 74 M 47 73 L 48 74 M 48 73 L 49 74 M 61 73 L 62 74 M 62 73 L 63 74 M 63 73 L 64 74 M 64 73 L 65 74 M 78 73 L 79 74 M 79 73 L 80 74 M 87 73 L 88 74 M 88 73 L 89 74 M 161 73 L 162 74 M 162 73 L 163 74 M 27 74 L 28 75 M 41 74 L 42 75 M 42 74 L 43 75 M 43 74 L 44 75 M 65 74 L 66 75 M 66 74 L 67 75 M 67 74 L 68 75 M 79 74 L 80 75 M 80 74 L 81 75 M 86 74 L 87 75 M 87 74 L 88 75 M 162 74 L 163 75 M 27 75 L 28 76 M 38 75 L 39 76 M 39 75 L 40 76 M 40 75 L 41 76 M 67 75 L 68 76 M 68 75 L 69 76 M 69 75 L 70 76 M 80 75 L 81 76 M 81 75 L 82 76 M 86 75 L 87 76 M 162 75 L 163 76 M 163 75 L 164 76 M 172 75 L 173 76 M 173 75 L 174 76 M 27 76 L 28 77 M 37 76 L 38 77 M 69 76 L 70 77 M 70 76 L 71 77 M 71 76 L 72 77 M 81 76 L 82 77 M 82 76 L 83 77 M 85 76 L 86 77 M 86 76 L 87 77 M 163 76 L 164 77 M 171 76 L 172 77 M 172 76 L 173 77 M 28 77 L 29 78 M 37 77 L 38 78 M 71 77 L 72 78 M 72 77 L 73 78 M 82 77 L 83 78 M 85 77 L 86 78 M 163 77 L 164 78 M 164 77 L 165 78 M 169 77 L 170 78 M 170 77 L 171 78 M 171 77 L 172 78 M 28 78 L 29 79 M 29 78 L 30 79 M 37 78 L 38 79 M 38 78 L 39 79 M 72 78 L 73 79 M 73 78 L 74 79 M 82 78 L 83 79 M 83 78 L 84 79 M 164 78 L 165 79 M 165 78 L 166 79 M 166 78 L 167 79 M 167 78 L 168 79 M 168 78 L 169 79 M 29 79 L 30 80 M 38 79 L 39 80 M 39 79 L 40 80 M 73 79 L 74 80 M 74 79 L 75 80 M 75 79 L 76 80 M 83 79 L 84 80 M 165 79 L 166 80 M 29 80 L 30 81 M 30 80 L 31 81 M 39 80 L 40 81 M 40 80 L 41 81 M 75 80 L 76 81 M 76 80 L 77 81 M 83 80 L 84 81 M 165 80 L 166 81 M 30 81 L 31 82 M 40 81 L 41 82 M 41 81 L 42 82 M 76 81 L 77 82 M 77 81 L 78 82 M 83 81 L 84 82 M 165 81 L 166 82 M 30 82 L 31 83 M 31 82 L 32 83 M 41 82 L 42 83 M 42 82 L 43 83 M 77 82 L 78 83 M 78 82 L 79 83 M 82 82 L 83 83 M 83 82 L 84 83 M 165 82 L 166 83 M 31 83 L 32 84 M 42 83 L 43 84 M 43 83 L 44 84 M 78 83 L 79 84 M 82 83 L 83 84 M 165 83 L 166 84 M 31 84 L 32 85 M 32 84 L 33 85 M 43 84 L 44 85 M 44 84 L 45 85 M 45 84 L 46 85 M 77 84 L 78 85 M 78 84 L 79 85 M 81 84 L 82 85 M 82 84 L 83 85 M 165 84 L 166 85 M 32 85 L 33 86 M 45 85 L 46 86 M 46 85 L 47 86 M 75 85 L 76 86 M 76 85 L 77 86 M 77 85 L 78 86 M 81 85 L 82 86 M 165 85 L 166 86 M 32 86 L 33 87 M 33 86 L 34 87 M 46 86 L 47 87 M 47 86 L 48 87 M 48 86 L 49 87 M 74 86 L 75 87 M 75 86 L 76 87 M 81 86 L 82 87 M 166 86 L 167 87 M 33 87 L 34 88 M 34 87 L 35 88 M 49 87 L 50 88 M 50 87 L 51 88 M 51 87 L 52 88 M 72 87 L 73 88 M 73 87 L 74 88 M 74 87 L 75 88 M 80 87 L 81 88 M 166 87 L 167 88 M 171 87 L 172 88 M 172 87 L 173 88 M 173 87 L 174 88 M 34 88 L 35 89 M 52 88 L 53 89 M 53 88 L 54 89 M 54 88 L 55 89 M 55 88 L 56 89 M 68 88 L 69 89 M 69 88 L 70 89 M 70 88 L 71 89 M 71 88 L 72 89 M 80 88 L 81 89 M 169 88 L 170 89 M 170 88 L 171 89 M 171 88 L 172 89 M 34 89 L 35 90 M 35 89 L 36 90 M 56 89 L 57 90 M 57 89 L 58 90 M 58 89 L 59 90 M 59 89 L 60 90 M 60 89 L 61 90 M 61 89 L 62 90 M 62 89 L 63 90 M 63 89 L 64 90 M 64 89 L 65 90 M 65 89 L 66 90 M 66 89 L 67 90 M 67 89 L 68 90 M 79 89 L 80 90 M 167 89 L 168 90 M 168 89 L 169 90 M 169 89 L 170 90 M 35 90 L 36 91 M 36 90 L 37 91 M 79 90 L 80 91 M 166 90 L 167 91 M 167 90 L 168 91 M 36 91 L 37 92 M 37 91 L 38 92 M 78 91 L 79 92 M 166 91 L 167 92 M 37 92 L 38 93 M 38 92 L 39 93 M 78 92 L 79 93 M 166 92 L 167 93 M 38 93 L 39 94 M 39 93 L 40 94 M 77 93 L 78 94 M 78 93 L 79 94 M 166 93 L 167 94 M 39 94 L 40 95 M 40 94 L 41 95 M 77 94 L 78 95 M 166 94 L 167 95 M 172 94 L 173 95 M 173 94 L 174 95 M 40 95 L 41 96 M 41 95 L 42 96 M 76 95 L 77 96 M 77 95 L 78 96 M 166 95 L 167 96 M 171 95 L 172 96 M 172 95 L 173 96 M 41 96 L 42 97 M 42 96 L 43 97 M 43 96 L 44 97 M 76 96 L 77 97 M 166 96 L 167 97 M 171 96 L 172 97 M 43 97 L 44 98 M 44 97 L 45 98 M 75 97 L 76 98 M 76 97 L 77 98 M 166 97 L 167 98 M 171 97 L 172 98 M 172 97 L 173 98 M 44 98 L 45 99 M 45 98 L 46 99 M 46 98 L 47 99 M 74 98 L 75 99 M 75 98 L 76 99 M 166 98 L 167 99 M 172 98 L 173 99 M 173 98 L 174 99 M 46 99 L 47 100 M 47 99 L 48 100 M 48 99 L 49 100 M 74 99 L 75 100 M 166 99 L 167 100 M 173 99 L 174 100 M 48 100 L 49 101 M 49 100 L 50 101 M 72 100 L 73 101 M 73 100 L 74 101 M 74 100 L 75 101 M 166 100 L 167 101 M 50 101 L 51 102 M 51 101 L 52 102 M 52 101 L 53 102 M 70 101 L 71 102 M 71 101 L 72 102 M 72 101 L 73 102 M 166 101 L 167 102 M 53 102 L 54 103 M 54 102 L 55 103 M 55 102 L 56 103 M 56 102 L 57 103 M 57 102 L 58 103 M 66 102 L 67 103 M 67 102 L 68 103 M 68 102 L 69 103 M 69 102 L 70 103 M 166 102 L 167 103 M 58 103 L 59 104 M 59 103 L 60 104 M 60 103 L 61 104 M 61 103 L 62 104 M 62 103 L 63 104 M 63 103 L 64 104 M 64 103 L 65 104 M 65 103 L 66 104 M 73 103 L 74 104 M 166 103 L 167 104 M 72 104 L 73 105 M 166 104 L 167 105 M 72 105 L 73 106 M 88 105 L 89 106 M 89 105 L 90 106 M 90 105 L 91 106 M 91 105 L 92 106 M 92 105 L 93 106 M 93 105 L 94 106 M 94 105 L 95 106 M 95 105 L 96 106 M 166 105 L 167 106 M 72 106 L 73 107 M 87 106 L 88 107 M 88 106 L 89 107 M 95 106 L 96 107 M 96 106 L 97 107 M 166 106 L 167 107 M 71 107 L 72 108 M 86 107 L 87 108 M 87 107 L 88 108 M 96 107 L 97 108 M 97 107 L 98 108 M 166 107 L 167 108 M 71 108 L 72 109 M 85 108 L 86 109 M 86 108 L 87 109 M 97 108 L 98 109 M 98 108 L 99 109 M 166 108 L 167 109 M 71 109 L 72 110 M 85 109 L 86 110 M 98 109 L 99 110 M 167 109 L 168 110 M 71 110 L 72 111 M 85 110 L 86 111 M 98 110 L 99 111 M 167 110 L 168 111 M 168 110 L 169 111 M 70 111 L 71 112 M 85 111 L 86 112 M 98 111 L 99 112 M 166 111 L 167 112 M 168 111 L 169 112 M 169 111 L 170 112 M 70 112 L 71 113 M 85 112 L 86 113 M 98 112 L 99 113 M 166 112 L 167 113 M 169 112 L 170 113 M 70 113 L 71 114 M 85 113 L 86 114 M 98 113 L 99 114 M 166 113 L 167 114 M 169 113 L 170 114 M 170 113 L 171 114 M 70 114 L 71 115 M 86 114 L 87 115 M 98 114 L 99 115 M 165 114 L 166 115 M 168 114 L 169 115 M 171 114 L 172 115 M 172 114 L 173 115 M 69 115 L 70 116 M 86 115 L 87 116 M 87 115 L 88 116 M 97 115 L 98 116 M 98 115 L 99 116 M 132 115 L 133 116 M 133 115 L 134 116 M 134 115 L 135 116 M 135 115 L 136 116 M 136 115 L 137 116 M 165 115 L 166 116 M 168 115 L 169 116 M 172 115 L 173 116 M 173 115 L 174 116 M 69 116 L 70 117 M 87 116 L 88 117 M 88 116 L 89 117 M 96 116 L 97 117 M 97 116 L 98 117 M 129 116 L 130 117 M 130 116 L 131 117 M 131 116 L 132 117 M 137 116 L 138 117 M 138 116 L 139 117 M 165 116 L 166 117 M 168 116 L 169 117 M 69 117 L 70 118 M 88 117 L 89 118 M 89 117 L 90 118 M 90 117 L 91 118 M 95 117 L 96 118 M 96 117 L 97 118 M 128 117 L 129 118 M 129 117 L 130 118 M 138 117 L 139 118 M 139 117 L 140 118 M 165 117 L 166 118 M 168 117 L 169 118 M 68 118 L 69 119 M 91 118 L 92 119 M 92 118 L 93 119 M 93 118 L 94 119 M 94 118 L 95 119 M 128 118 L 129 119 M 139 118 L 140 119 M 165 118 L 166 119 M 168 118 L 169 119 M 68 119 L 69 120 M 128 119 L 129 120 M 139 119 L 140 120 M 164 119 L 165 120 M 168 119 L 169 120 M 68 120 L 69 121 M 127 120 L 128 121 M 140 120 L 141 121 M 164 120 L 165 121 M 168 120 L 169 121 M 68 121 L 69 122 M 127 121 L 128 122 M 140 121 L 141 122 M 164 121 L 165 122 M 168 121 L 169 122 M 67 122 L 68 123 M 127 122 L 128 123 M 140 122 L 141 123 M 164 122 L 165 123 M 168 122 L 169 123 M 67 123 L 68 124 M 127 123 L 128 124 M 140 123 L 141 124 M 163 123 L 164 124 M 168 123 L 169 124 M 67 124 L 68 125 M 127 124 L 128 125 M 140 124 L 141 125 M 163 124 L 164 125 M 168 124 L 169 125 M 66 125 L 67 126 M 127 125 L 128 126 M 128 125 L 129 126 M 140 125 L 141 126 M 163 125 L 164 126 M 168 125 L 169 126 M 66 126 L 67 127 M 128 126 L 129 127 M 129 126 L 130 127 M 139 126 L 140 127 M 163 126 L 164 127 M 168 126 L 169 127 M 66 127 L 67 128 M 129 127 L 130 128 M 130 127 L 131 128 M 138 127 L 139 128 M 139 127 L 140 128 M 163 127 L 164 128 M 168 127 L 169 128 M 65 128 L 66 129 M 130 128 L 131 129 M 131 128 L 132 129 M 132 128 L 133 129 M 136 128 L 137 129 M 137 128 L 138 129 M 138 128 L 139 129 M 162 128 L 163 129 M 168 128 L 169 129 M 65 129 L 66 130 M 133 129 L 134 130 M 134 129 L 135 130 M 135 129 L 136 130 M 162 129 L 163 130 M 168 129 L 169 130 M 65 130 L 66 131 M 162 130 L 163 131 M 168 130 L 169 131 M 64 131 L 65 132 M 162 131 L 163 132 M 168 131 L 169 132 M 64 132 L 65 133 M 161 132 L 162 133 M 168 132 L 169 133 M 64 133 L 65 134 M 161 133 L 162 134 M 169 133 L 170 134 M 64 134 L 65 135 M 161 134 L 162 135 M 169 134 L 170 135 M 63 135 L 64 136 M 161 135 L 162 136 M 169 135 L 170 136 M 63 136 L 64 137 M 160 136 L 161 137 M 169 136 L 170 137 M 63 137 L 64 138 M 160 137 L 161 138 M 169 137 L 170 138 M 62 138 L 63 139 M 160 138 L 161 139 M 169 138 L 170 139 M 62 139 L 63 140 M 160 139 L 161 140 M 169 139 L 170 140 M 62 140 L 63 141 M 79 140 L 80 141 M 80 140 L 81 141 M 81 140 L 82 141 M 82 140 L 83 141 M 83 140 L 84 141 M 84 140 L 85 141 M 85 140 L 86 141 M 86 140 L 87 141 M 87 140 L 88 141 M 88 140 L 89 141 M 89 140 L 90 141 M 90 140 L 91 141 M 91 140 L 92 141 M 92 140 L 93 141 M 93 140 L 94 141 M 94 140 L 95 141 M 95 140 L 96 141 M 96 140 L 97 141 M 159 140 L 160 141 M 169 140 L 170 141 M 62 141 L 63 142 M 76 141 L 77 142 M 77 141 L 78 142 M 78 141 L 79 142 M 97 141 L 98 142 M 98 141 L 99 142 M 99 141 L 100 142 M 100 141 L 101 142 M 101 141 L 102 142 M 102 141 L 103 142 M 159 141 L 160 142 M 169 141 L 170 142 M 61 142 L 62 143 M 73 142 L 74 143 M 74 142 L 75 143 M 75 142 L 76 143 M 103 142 L 104 143 M 104 142 L 105 143 M 105 142 L 106 143 M 106 142 L 107 143 M 107 142 L 108 143 M 159 142 L 160 143 M 169 142 L 170 143 M 61 143 L 62 144 M 71 143 L 72 144 M 72 143 L 73 144 M 73 143 L 74 144 M 108 143 L 109 144 M 109 143 L 110 144 M 110 143 L 111 144 M 111 143 L 112 144 M 158 143 L 159 144 M 169 143 L 170 144 M 61 144 L 62 145 M 70 144 L 71 145 M 71 144 L 72 145 M 112 144 L 113 145 M 113 144 L 114 145 M 114 144 L 115 145 M 158 144 L 159 145 M 169 144 L 170 145 M 60 145 L 61 146 M 68 145 L 69 146 M 69 145 L 70 146 M 70 145 L 71 146 M 115 145 L 116 146 M 116 145 L 117 146 M 117 145 L 118 146 M 118 145 L 119 146 M 158 145 L 159 146 M 169 145 L 170 146 M 60 146 L 61 147 M 67 146 L 68 147 M 68 146 L 69 147 M 119 146 L 120 147 M 120 146 L 121 147 M 121 146 L 122 147 M 158 146 L 159 147 M 169 146 L 170 147 M 60 147 L 61 148 M 66 147 L 67 148 M 67 147 L 68 148 M 122 147 L 123 148 M 123 147 L 124 148 M 124 147 L 125 148 M 157 147 L 158 148 M 169 147 L 170 148 M 59 148 L 60 149 M 66 148 L 67 149 M 124 148 L 125 149 M 125 148 L 126 149 M 126 148 L 127 149 M 157 148 L 158 149 M 169 148 L 170 149 M 59 149 L 60 150 M 65 149 L 66 150 M 66 149 L 67 150 M 126 149 L 127 150 M 127 149 L 128 150 M 157 149 L 158 150 M 169 149 L 170 150 M 59 150 L 60 151 M 64 150 L 65 151 M 65 150 L 66 151 M 127 150 L 128 151 M 128 150 L 129 151 M 157 150 L 158 151 M 170 150 L 171 151 M 59 151 L 60 152 M 64 151 L 65 152 M 82 151 L 83 152 M 83 151 L 84 152 M 84 151 L 85 152 M 85 151 L 86 152 M 128 151 L 129 152 M 129 151 L 130 152 M 130 151 L 131 152 M 156 151 L 157 152 M 170 151 L 171 152 M 59 152 L 60 153 M 63 152 L 64 153 M 64 152 L 65 153 M 79 152 L 80 153 M 80 152 L 81 153 M 81 152 L 82 153 M 86 152 L 87 153 M 87 152 L 88 153 M 130 152 L 131 153 M 131 152 L 132 153 M 156 152 L 157 153 M 170 152 L 171 153 M 58 153 L 59 154 M 63 153 L 64 154 M 78 153 L 79 154 M 79 153 L 80 154 M 87 153 L 88 154 M 88 153 L 89 154 M 89 153 L 90 154 M 131 153 L 132 154 M 132 153 L 133 154 M 156 153 L 157 154 M 170 153 L 171 154 M 58 154 L 59 155 M 62 154 L 63 155 M 77 154 L 78 155 M 78 154 L 79 155 M 89 154 L 90 155 M 132 154 L 133 155 M 155 154 L 156 155 M 170 154 L 171 155 M 58 155 L 59 156 M 62 155 L 63 156 M 77 155 L 78 156 M 89 155 L 90 156 M 90 155 L 91 156 M 132 155 L 133 156 M 133 155 L 134 156 M 155 155 L 156 156 M 170 155 L 171 156 M 58 156 L 59 157 M 62 156 L 63 157 M 77 156 L 78 157 M 90 156 L 91 157 M 91 156 L 92 157 M 133 156 L 134 157 M 134 156 L 135 157 M 155 156 L 156 157 M 170 156 L 171 157 M 58 157 L 59 158 M 62 157 L 63 158 M 76 157 L 77 158 M 91 157 L 92 158 M 134 157 L 135 158 M 155 157 L 156 158 M 170 157 L 171 158 M 58 158 L 59 159 M 61 158 L 62 159 M 76 158 L 77 159 M 91 158 L 92 159 M 115 158 L 116 159 M 116 158 L 117 159 M 117 158 L 118 159 M 118 158 L 119 159 M 119 158 L 120 159 M 120 158 L 121 159 M 134 158 L 135 159 M 135 158 L 136 159 M 154 158 L 155 159 M 170 158 L 171 159 M 57 159 L 58 160 M 61 159 L 62 160 M 76 159 L 77 160 M 91 159 L 92 160 M 112 159 L 113 160 M 113 159 L 114 160 M 114 159 L 115 160 M 121 159 L 122 160 M 122 159 L 123 160 M 135 159 L 136 160 M 154 159 L 155 160 M 170 159 L 171 160 M 57 160 L 58 161 M 61 160 L 62 161 M 76 160 L 77 161 M 91 160 L 92 161 M 111 160 L 112 161 M 112 160 L 113 161 M 122 160 L 123 161 M 123 160 L 124 161 M 135 160 L 136 161 M 154 160 L 155 161 M 170 160 L 171 161 M 57 161 L 58 162 M 61 161 L 62 162 M 77 161 L 78 162 M 91 161 L 92 162 M 110 161 L 111 162 M 111 161 L 112 162 M 123 161 L 124 162 M 124 161 L 125 162 M 136 161 L 137 162 M 153 161 L 154 162 M 170 161 L 171 162 M 61 162 L 62 163 M 77 162 L 78 163 M 90 162 L 91 163 M 110 162 L 111 163 M 124 162 L 125 163 M 136 162 L 137 163 M 153 162 L 154 163 M 171 162 L 172 163 M 61 163 L 62 164 M 77 163 L 78 164 M 78 163 L 79 164 M 90 163 L 91 164 M 109 163 L 110 164 M 110 163 L 111 164 M 124 163 L 125 164 M 136 163 L 137 164 M 153 163 L 154 164 M 171 163 L 172 164 M 57 164 L 58 165 M 61 164 L 62 165 M 78 164 L 79 165 M 89 164 L 90 165 M 90 164 L 91 165 M 109 164 L 110 165 M 124 164 L 125 165 M 137 164 L 138 165 M 152 164 L 153 165 M 171 164 L 172 165 M 55 165 L 56 166 M 57 165 L 58 166 M 61 165 L 62 166 M 78 165 L 79 166 M 79 165 L 80 166 M 88 165 L 89 166 M 89 165 L 90 166 M 109 165 L 110 166 M 124 165 L 125 166 M 137 165 L 138 166 M 152 165 L 153 166 M 171 165 L 172 166 M 55 166 L 56 167 M 58 166 L 59 167 M 61 166 L 62 167 M 79 166 L 80 167 M 80 166 L 81 167 M 81 166 L 82 167 M 86 166 L 87 167 M 87 166 L 88 167 M 88 166 L 89 167 M 109 166 L 110 167 M 124 166 L 125 167 M 137 166 L 138 167 M 152 166 L 153 167 M 171 166 L 172 167 M 55 167 L 56 168 M 58 167 L 59 168 M 61 167 L 62 168 M 81 167 L 82 168 M 82 167 L 83 168 M 83 167 L 84 168 M 84 167 L 85 168 M 85 167 L 86 168 M 86 167 L 87 168 M 109 167 L 110 168 M 124 167 L 125 168 M 137 167 L 138 168 M 152 167 L 153 168 M 171 167 L 172 168 M 54 168 L 55 169 M 58 168 L 59 169 M 62 168 L 63 169 M 109 168 L 110 169 M 123 168 L 124 169 M 124 168 L 125 169 M 137 168 L 138 169 M 151 168 L 152 169 M 171 168 L 172 169 M 54 169 L 55 170 M 59 169 L 60 170 M 62 169 L 63 170 M 63 169 L 64 170 M 109 169 L 110 170 M 110 169 L 111 170 M 123 169 L 124 170 M 137 169 L 138 170 M 151 169 L 152 170 M 171 169 L 172 170 M 54 170 L 55 171 M 59 170 L 60 171 M 63 170 L 64 171 M 110 170 L 111 171 M 122 170 L 123 171 M 123 170 L 124 171 M 137 170 L 138 171 M 151 170 L 152 171 M 171 170 L 172 171 M 53 171 L 54 172 M 59 171 L 60 172 M 60 171 L 61 172 M 63 171 L 64 172 M 64 171 L 65 172 M 110 171 L 111 172 M 111 171 L 112 172 M 121 171 L 122 172 M 122 171 L 123 172 M 137 171 L 138 172 M 150 171 L 151 172 M 172 171 L 173 172 M 53 172 L 54 173 M 60 172 L 61 173 M 64 172 L 65 173 M 65 172 L 66 173 M 111 172 L 112 173 M 112 172 L 113 173 M 113 172 L 114 173 M 119 172 L 120 173 M 120 172 L 121 173 M 121 172 L 122 173 M 136 172 L 137 173 M 150 172 L 151 173 M 172 172 L 173 173 M 53 173 L 54 174 M 60 173 L 61 174 M 61 173 L 62 174 M 65 173 L 66 174 M 113 173 L 114 174 M 114 173 L 115 174 M 115 173 L 116 174 M 116 173 L 117 174 M 117 173 L 118 174 M 118 173 L 119 174 M 119 173 L 120 174 M 136 173 L 137 174 M 150 173 L 151 174 M 172 173 L 173 174 M 52 174 L 53 175 M 61 174 L 62 175 M 65 174 L 66 175 M 66 174 L 67 175 M 136 174 L 137 175 M 149 174 L 150 175 M 172 174 L 173 175 M 52 175 L 53 176 M 61 175 L 62 176 M 62 175 L 63 176 M 66 175 L 67 176 M 67 175 L 68 176 M 136 175 L 137 176 M 149 175 L 150 176 M 172 175 L 173 176 M 52 176 L 53 177 M 62 176 L 63 177 M 63 176 L 64 177 M 67 176 L 68 177 M 68 176 L 69 177 M 135 176 L 136 177 M 149 176 L 150 177 M 172 176 L 173 177 M 52 177 L 53 178 M 63 177 L 64 178 M 68 177 L 69 178 M 69 177 L 70 178 M 70 177 L 71 178 M 135 177 L 136 178 M 148 177 L 149 178 M 172 177 L 173 178 M 51 178 L 52 179 M 63 178 L 64 179 M 64 178 L 65 179 M 70 178 L 71 179 M 71 178 L 72 179 M 134 178 L 135 179 M 135 178 L 136 179 M 148 178 L 149 179 M 172 178 L 173 179 M 51 179 L 52 180 M 64 179 L 65 180 M 65 179 L 66 180 M 71 179 L 72 180 M 72 179 L 73 180 M 133 179 L 134 180 M 134 179 L 135 180 M 147 179 L 148 180 M 148 179 L 149 180 M 173 179 L 174 180 M 51 180 L 52 181 M 65 180 L 66 181 M 66 180 L 67 181 M 72 180 L 73 181 M 73 180 L 74 181 M 74 180 L 75 181 M 132 180 L 133 181 M 133 180 L 134 181 M 147 180 L 148 181 M 173 180 L 174 181 M 50 181 L 51 182 M 66 181 L 67 182 M 67 181 L 68 182 M 68 181 L 69 182 M 74 181 L 75 182 M 75 181 L 76 182 M 76 181 L 77 182 M 131 181 L 132 182 M 132 181 L 133 182 M 146 181 L 147 182 M 147 181 L 148 182 M 173 181 L 174 182 M 50 182 L 51 183 M 68 182 L 69 183 M 69 182 L 70 183 M 76 182 L 77 183 M 77 182 L 78 183 M 78 182 L 79 183 M 130 182 L 131 183 M 131 182 L 132 183 M 145 182 L 146 183 M 146 182 L 147 183 M 173 182 L 174 183 M 50 183 L 51 184 M 69 183 L 70 184 M 70 183 L 71 184 M 78 183 L 79 184 M 79 183 L 80 184 M 80 183 L 81 184 M 129 183 L 130 184 M 130 183 L 131 184 M 145 183 L 146 184 M 173 183 L 174 184" fill="none" stroke="white" stroke-width="5" /></svg>