<?xml version="1.0" encoding="utf-8" ?>
<svg baseProfile="tiny" height="210" version="1.2" width="200" xmlns="http://www.w3.org/2000/svg" xmlns:ev="http://www.w3.org/2001/xml-events" xmlns:xlink="http://www.w3.org/1999/xlink"><defs /><path d="M 79 23 L 80 24 M 81 23 L 82 24 M 82 23 L 83 24 M 79 24 L 80 25 M 81 24 L 82 25 M 78 25 L 79 26 M 80 25 L 81 26 M 81 25 L 82 26 M 77 26 L 78 27 M 80 26 L 81 27 M 76 27 L 77 28 M 77 27 L 78 28 M 79 27 L 80 28 M 75 28 L 76 29 M 76 28 L 77 29 M 79 28 L 80 29 M 75 29 L 76 30 M 79 29 L 80 30 M 74 30 L 75 31 M 75 30 L 76 31 M 78 30 L 79 31 M 73 31 L 74 32 M 74 31 L 75 32 M 78 31 L 79 32 M 73 32 L 74 33 M 78 32 L 79 33 M 72 33 L 73 34 M 73 33 L 74 34 M 78 33 L 79 34 M 71 34 L 72 35 M 72 34 L 73 35 M 78 34 L 79 35 M 71 35 L 72 36 M 78 35 L 79 36 M 70 36 L 71 37 M 71 36 L 72 37 M 78 36 L 79 37 M 70 37 L 71 38 M 78 37 L 79 38 M 70 38 L 71 39 M 78 38 L 79 39 M 69 39 L 70 40 M 78 39 L 79 40 M 163 39 L 164 40 M 165 39 L 166 40 M 69 40 L 70 41 M 79 40 L 80 41 M 163 40 L 164 41 M 165 40 L 166 41 M 69 41 L 70 42 M 79 41 L 80 42 M 163 41 L 164 42 M 165 41 L 166 42 M 69 42 L 70 43 M 79 42 L 80 43 M 163 42 L 164 43 M 165 42 L 166 43 M 68 43 L 69 44 M 79 43 L 80 44 M 163 43 L 164 44 M 166 43 L 167 44 M 68 44 L 69 45 M 79 44 L 80 45 M 163 44 L 164 45 M 166 44 L 167 45 M 68 45 L 69 46 M 80 45 L 81 46 M 163 45 L 164 46 M 166 45 L 167 46 M 68 46 L 69 47 M 80 46 L 81 47 M 163 46 L 164 47 M 166 46 L 167 47 M 68 47 L 69 48 M 81 47 L 82 48 M 162 47 L 163 48 M 166 47 L 167 48 M 68 48 L 69 49 M 81 48 L 82 49 M 162 48 L 163 49 M 167 48 L 168 49 M 68 49 L 69 50 M 81 49 L 82 50 M 82 49 L 83 50 M 162 49 L 163 50 M 167 49 L 168 50 M 68 50 L 69 51 M 82 50 L 83 51 M 161 50 L 162 51 M 167 50 L 168 51 M 68 51 L 69 52 M 82 51 L 83 52 M 83 51 L 84 52 M 161 51 L 162 52 M 167 51 L 168 52 M 68 52 L 69 53 M 83 52 L 84 53 M 84 52 L 85 53 M 160 52 L 161 53 M 161 52 L 162 53 M 167 52 L 168 53 M 68 53 L 69 54 M 84 53 L 85 54 M 85 53 L 86 54 M 160 53 L 161 54 M 167 53 L 168 54 M 68 54 L 69 55 M 85 54 L 86 55 M 159 54 L 160 55 M 160 54 L 161 55 M 167 54 L 168 55 M 68 55 L 69 56 M 85 55 L 86 56 M 86 55 L 87 56 M 159 55 L 160 56 M 167 55 L 168 56 M 68 56 L 69 57 M 86 56 L 87 57 M 87 56 L 88 57 M 158 56 L 159 57 M 159 56 L 160 57 M 167 56 L 168 57 M 68 57 L 69 58 M 87 57 L 88 58 M 88 57 L 89 58 M 157 57 L 158 58 M 158 57 L 159 58 M 167 57 L 168 58 M 69 58 L 70 59 M 88 58 L 89 59 M 89 58 L 90 59 M 156 58 L 157 59 M 157 58 L 158 59 M 167 58 L 168 59 M 69 59 L 70 60 M 89 59 L 90 60 M 90 59 L 91 60 M 155 59 L 156 60 M 156 59 L 157 60 M 167 59 L 168 60 M 69 60 L 70 61 M 90 60 L 91 61 M 154 60 L 155 61 M 155 60 L 156 61 M 167 60 L 168 61 M 69 61 L 70 62 M 88 61 L 89 62 M 89 61 L 90 62 M 90 61 L 91 62 M 91 61 L 92 62 M 92 61 L 93 62 M 93 61 L 94 62 M 94 61 L 95 62 M 95 61 L 96 62 M 96 61 L 97 62 M 97 61 L 98 62 M 98 61 L 99 62 M 99 61 L 100 62 M 100 61 L 101 62 M 101 61 L 102 62 M 153 61 L 154 62 M 154 61 L 155 62 M 167 61 L 168 62 M 70 62 L 71 63 M 86 62 L 87 63 M 87 62 L 88 63 M 102 62 L 103 63 M 103 62 L 104 63 M 104 62 L 105 63 M 105 62 L 106 63 M 106 62 L 107 63 M 152 62 L 153 63 M 153 62 L 154 63 M 167 62 L 168 63 M 70 63 L 71 64 M 71 63 L 72 64 M 84 63 L 85 64 M 85 63 L 86 64 M 86 63 L 87 64 M 107 63 L 108 64 M 108 63 L 109 64 M 109 63 L 110 64 M 110 63 L 111 64 M 111 63 L 112 64 M 112 63 L 113 64 M 151 63 L 152 64 M 152 63 L 153 64 M 166 63 L 167 64 M 71 64 L 72 65 M 83 64 L 84 65 M 84 64 L 85 65 M 113 64 L 114 65 M 114 64 L 115 65 M 115 64 L 116 65 M 116 64 L 117 65 M 117 64 L 118 65 M 149 64 L 150 65 M 150 64 L 151 65 M 151 64 L 152 65 M 166 64 L 167 65 M 71 65 L 72 66 M 72 65 L 73 66 M 81 65 L 82 66 M 82 65 L 83 66 M 83 65 L 84 66 M 118 65 L 119 66 M 119 65 L 120 66 M 120 65 L 121 66 M 121 65 L 122 66 M 148 65 L 149 66 M 149 65 L 150 66 M 166 65 L 167 66 M 72 66 L 73 67 M 80 66 L 81 67 M 81 66 L 82 67 M 122 66 L 123 67 M 123 66 L 124 67 M 124 66 L 125 67 M 125 66 L 126 67 M 146 66 L 147 67 M 147 66 L 148 67 M 148 66 L 149 67 M 166 66 L 167 67 M 72 67 L 73 68 M 73 67 L 74 68 M 79 67 L 80 68 M 80 67 L 81 68 M 126 67 L 127 68 M 127 67 L 128 68 M 128 67 L 129 68 M 129 67 L 130 68 M 144 67 L 145 68 M 145 67 L 146 68 M 146 67 L 147 68 M 165 67 L 166 68 M 73 68 L 74 69 M 74 68 L 75 69 M 77 68 L 78 69 M 78 68 L 79 69 M 79 68 L 80 69 M 130 68 L 131 69 M 131 68 L 132 69 M 132 68 L 133 69 M 141 68 L 142 69 M 142 68 L 143 69 M 143 68 L 144 69 M 165 68 L 166 69 M 31 69 L 32 70 M 32 69 L 33 70 M 33 69 L 34 70 M 34 69 L 35 70 M 35 69 L 36 70 M 36 69 L 37 70 M 37 69 L 38 70 M 38 69 L 39 70 M 39 69 L 40 70 M 40 69 L 41 70 M 41 69 L 42 70 M 42 69 L 43 70 M 74 69 L 75 70 M 75 69 L 76 70 M 76 69 L 77 70 M 77 69 L 78 70 M 133 69 L 134 70 M 134 69 L 135 70 M 137 69 L 138 70 M 138 69 L 139 70 M 139 69 L 140 70 M 140 69 L 141 70 M 164 69 L 165 70 M 165 69 L 166 70 M 27 70 L 28 71 M 28 70 L 29 71 M 29 70 L 30 71 M 30 70 L 31 71 M 43 70 L 44 71 M 44 70 L 45 71 M 45 70 L 46 71 M 46 70 L 47 71 M 134 70 L 135 71 M 135 70 L 136 71 M 136 70 L 137 71 M 137 70 L 138 71 M 164 70 L 165 71 M 24 71 L 25 72 M 25 71 L 26 72 M 26 71 L 27 72 M 47 71 L 48 72 M 48 71 L 49 72 M 49 71 L 50 72 M 74 71 L 75 72 M 75 71 L 76 72 M 136 71 L 137 72 M 137 71 L 138 72 M 163 71 L 164 72 M 164 71 L 165 72 M 21 72 L 22 73 M 22 72 L 23 73 M 23 72 L 24 73 M 50 72 L 51 73 M 51 72 L 52 73 M 73 72 L 74 73 M 74 72 L 75 73 M 137 72 L 138 73 M 138 72 L 139 73 M 163 72 L 164 73 M 18 73 L 19 74 M 19 73 L 20 74 M 20 73 L 21 74 M 51 73 L 52 74 M 52 73 L 53 74 M 53 73 L 54 74 M 72 73 L 73 74 M 73 73 L 74 74 M 138 73 L 139 74 M 139 73 L 140 74 M 162 73 L 163 74 M 163 73 L 164 74 M 16 74 L 17 75 M 17 74 L 18 75 M 18 74 L 19 75 M 53 74 L 54 75 M 54 74 L 55 75 M 55 74 L 56 75 M 72 74 L 73 75 M 139 74 L 140 75 M 161 74 L 162 75 M 162 74 L 163 75 M 14 75 L 15 76 M 15 75 L 16 76 M 16 75 L 17 76 M 55 75 L 56 76 M 56 75 L 57 76 M 71 75 L 72 76 M 72 75 L 73 76 M 139 75 L 140 76 M 140 75 L 141 76 M 161 75 L 162 76 M 12 76 L 13 77 M 13 76 L 14 77 M 14 76 L 15 77 M 56 76 L 57 77 M 57 76 L 58 77 M 70 76 L 71 77 M 71 76 L 72 77 M 140 76 L 141 77 M 141 76 L 142 77 M 160 76 L 161 77 M 161 76 L 162 77 M 11 77 L 12 78 M 12 77 L 13 78 M 57 77 L 58 78 M 58 77 L 59 78 M 69 77 L 70 78 M 70 77 L 71 78 M 141 77 L 142 78 M 159 77 L 160 78 M 160 77 L 161 78 M 9 78 L 10 79 M 10 78 L 11 79 M 11 78 L 12 79 M 30 78 L 31 79 M 31 78 L 32 79 M 32 78 L 33 79 M 33 78 L 34 79 M 34 78 L 35 79 M 35 78 L 36 79 M 36 78 L 37 79 M 37 78 L 38 79 M 38 78 L 39 79 M 39 78 L 40 79 M 40 78 L 41 79 M 41 78 L 42 79 M 58 78 L 59 79 M 59 78 L 60 79 M 69 78 L 70 79 M 141 78 L 142 79 M 142 78 L 143 79 M 158 78 L 159 79 M 159 78 L 160 79 M 8 79 L 9 80 M 9 79 L 10 80 M 25 79 L 26 80 M 26 79 L 27 80 M 27 79 L 28 80 M 28 79 L 29 80 M 29 79 L 30 80 M 42 79 L 43 80 M 43 79 L 44 80 M 44 79 L 45 80 M 45 79 L 46 80 M 59 79 L 60 80 M 60 79 L 61 80 M 68 79 L 69 80 M 69 79 L 70 80 M 142 79 L 143 80 M 143 79 L 144 80 M 156 79 L 157 80 M 157 79 L 158 80 M 158 79 L 159 80 M 8 80 L 9 81 M 22 80 L 23 81 M 23 80 L 24 81 M 24 80 L 25 81 M 46 80 L 47 81 M 47 80 L 48 81 M 48 80 L 49 81 M 60 80 L 61 81 M 61 80 L 62 81 M 67 80 L 68 81 M 68 80 L 69 81 M 143 80 L 144 81 M 155 80 L 156 81 M 156 80 L 157 81 M 8 81 L 9 82 M 19 81 L 20 82 M 20 81 L 21 82 M 21 81 L 22 82 M 48 81 L 49 82 M 49 81 L 50 82 M 50 81 L 51 82 M 61 81 L 62 82 M 62 81 L 63 82 M 67 81 L 68 82 M 143 81 L 144 82 M 144 81 L 145 82 M 153 81 L 154 82 M 154 81 L 155 82 M 155 81 L 156 82 M 8 82 L 9 83 M 18 82 L 19 83 M 50 82 L 51 83 M 51 82 L 52 83 M 52 82 L 53 83 M 62 82 L 63 83 M 63 82 L 64 83 M 66 82 L 67 83 M 67 82 L 68 83 M 144 82 L 145 83 M 152 82 L 153 83 M 153 82 L 154 83 M 9 83 L 10 84 M 18 83 L 19 84 M 52 83 L 53 84 M 53 83 L 54 84 M 63 83 L 64 84 M 66 83 L 67 84 M 144 83 L 145 84 M 145 83 L 146 84 M 150 83 L 151 84 M 151 83 L 152 84 M 152 83 L 153 84 M 9 84 L 10 85 M 10 84 L 11 85 M 18 84 L 19 85 M 19 84 L 20 85 M 53 84 L 54 85 M 54 84 L 55 85 M 63 84 L 64 85 M 64 84 L 65 85 M 145 84 L 146 85 M 146 84 L 147 85 M 147 84 L 148 85 M 148 84 L 149 85 M 149 84 L 150 85 M 10 85 L 11 86 M 19 85 L 20 86 M 20 85 L 21 86 M 54 85 L 55 86 M 55 85 L 56 86 M 56 85 L 57 86 M 64 85 L 65 86 M 146 85 L 147 86 M 10 86 L 11 87 M 11 86 L 12 87 M 20 86 L 21 87 M 21 86 L 22 87 M 56 86 L 57 87 M 57 86 L 58 87 M 64 86 L 65 87 M 146 86 L 147 87 M 11 87 L 12 88 M 21 87 L 22 88 M 22 87 L 23 88 M 57 87 L 58 88 M 58 87 L 59 88 M 64 87 L 65 88 M 146 87 L 147 88 M 11 88 L 12 89 M 12 88 L 13 89 M 22 88 L 23 89 M 23 88 L 24 89 M 58 88 L 59 89 M 59 88 L 60 89 M 63 88 L 64 89 M 64 88 L 65 89 M 146 88 L 147 89 M 12 89 L 13 90 M 23 89 L 24 90 M 24 89 L 25 90 M 59 89 L 60 90 M 63 89 L 64 90 M 146 89 L 147 90 M 167 89 L 168 90 M 168 89 L 169 90 M 12 90 L 13 91 M 13 90 L 14 91 M 24 90 L 25 91 M 25 90 L 26 91 M 26 90 L 27 91 M 58 90 L 59 91 M 59 90 L 60 91 M 62 90 L 63 91 M 63 90 L 64 91 M 146 90 L 147 91 M 160 90 L 161 91 M 161 90 L 162 91 M 162 90 L 163 91 M 163 90 L 164 91 M 164 90 L 165 91 M 165 90 L 166 91 M 166 90 L 167 91 M 169 90 L 170 91 M 170 90 L 171 91 M 171 90 L 172 91 M 172 90 L 173 91 M 173 90 L 174 91 M 174 90 L 175 91 M 13 91 L 14 92 M 26 91 L 27 92 M 27 91 L 28 92 M 56 91 L 57 92 M 57 91 L 58 92 M 58 91 L 59 92 M 62 91 L 63 92 M 146 91 L 147 92 M 157 91 L 158 92 M 158 91 L 159 92 M 159 91 L 160 92 M 175 91 L 176 92 M 176 91 L 177 92 M 177 91 L 178 92 M 13 92 L 14 93 M 14 92 L 15 93 M 27 92 L 28 93 M 28 92 L 29 93 M 29 92 L 30 93 M 55 92 L 56 93 M 56 92 L 57 93 M 62 92 L 63 93 M 147 92 L 148 93 M 154 92 L 155 93 M 155 92 L 156 93 M 156 92 L 157 93 M 178 92 L 179 93 M 179 92 L 180 93 M 180 92 L 181 93 M 14 93 L 15 94 M 15 93 L 16 94 M 30 93 L 31 94 M 31 93 L 32 94 M 32 93 L 33 94 M 53 93 L 54 94 M 54 93 L 55 94 M 55 93 L 56 94 M 61 93 L 62 94 M 147 93 L 148 94 M 152 93 L 153 94 M 153 93 L 154 94 M 154 93 L 155 94 M 180 93 L 181 94 M 181 93 L 182 94 M 15 94 L 16 95 M 33 94 L 34 95 M 34 94 L 35 95 M 35 94 L 36 95 M 36 94 L 37 95 M 49 94 L 50 95 M 50 94 L 51 95 M 51 94 L 52 95 M 52 94 L 53 95 M 61 94 L 62 95 M 150 94 L 151 95 M 151 94 L 152 95 M 152 94 L 153 95 M 181 94 L 182 95 M 182 94 L 183 95 M 183 94 L 184 95 M 15 95 L 16 96 M 16 95 L 17 96 M 37 95 L 38 96 M 38 95 L 39 96 M 39 95 L 40 96 M 40 95 L 41 96 M 41 95 L 42 96 M 42 95 L 43 96 M 43 95 L 44 96 M 44 95 L 45 96 M 45 95 L 46 96 M 46 95 L 47 96 M 47 95 L 48 96 M 48 95 L 49 96 M 60 95 L 61 96 M 148 95 L 149 96 M 149 95 L 150 96 M 150 95 L 151 96 M 183 95 L 184 96 M 184 95 L 185 96 M 16 96 L 17 97 M 17 96 L 18 97 M 60 96 L 61 97 M 147 96 L 148 97 M 148 96 L 149 97 M 184 96 L 185 97 M 185 96 L 186 97 M 17 97 L 18 98 M 18 97 L 19 98 M 59 97 L 60 98 M 147 97 L 148 98 M 165 97 L 166 98 M 166 97 L 167 98 M 167 97 L 168 98 M 185 97 L 186 98 M 186 97 L 187 98 M 187 97 L 188 98 M 18 98 L 19 99 M 19 98 L 20 99 M 59 98 L 60 99 M 147 98 L 148 99 M 159 98 L 160 99 M 160 98 L 161 99 M 161 98 L 162 99 M 162 98 L 163 99 M 163 98 L 164 99 M 164 98 L 165 99 M 168 98 L 169 99 M 169 98 L 170 99 M 170 98 L 171 99 M 171 98 L 172 99 M 172 98 L 173 99 M 187 98 L 188 99 M 188 98 L 189 99 M 19 99 L 20 100 M 20 99 L 21 100 M 58 99 L 59 100 M 59 99 L 60 100 M 147 99 L 148 100 M 156 99 L 157 100 M 157 99 L 158 100 M 158 99 L 159 100 M 173 99 L 174 100 M 174 99 L 175 100 M 175 99 L 176 100 M 188 99 L 189 100 M 189 99 L 190 100 M 20 100 L 21 101 M 21 100 L 22 101 M 58 100 L 59 101 M 147 100 L 148 101 M 153 100 L 154 101 M 154 100 L 155 101 M 155 100 L 156 101 M 175 100 L 176 101 M 176 100 L 177 101 M 177 100 L 178 101 M 189 100 L 190 101 M 190 100 L 191 101 M 21 101 L 22 102 M 22 101 L 23 102 M 57 101 L 58 102 M 58 101 L 59 102 M 147 101 L 148 102 M 152 101 L 153 102 M 153 101 L 154 102 M 177 101 L 178 102 M 178 101 L 179 102 M 179 101 L 180 102 M 190 101 L 191 102 M 191 101 L 192 102 M 22 102 L 23 103 M 23 102 L 24 103 M 24 102 L 25 103 M 57 102 L 58 103 M 147 102 L 148 103 M 152 102 L 153 103 M 179 102 L 180 103 M 180 102 L 181 103 M 191 102 L 192 103 M 192 102 L 193 103 M 24 103 L 25 104 M 25 103 L 26 104 M 56 103 L 57 104 M 57 103 L 58 104 M 147 103 L 148 104 M 152 103 L 153 104 M 153 103 L 154 104 M 180 103 L 181 104 M 181 103 L 182 104 M 192 103 L 193 104 M 193 103 L 194 104 M 25 104 L 26 105 M 26 104 L 27 105 M 27 104 L 28 105 M 55 104 L 56 105 M 56 104 L 57 105 M 147 104 L 148 105 M 153 104 L 154 105 M 154 104 L 155 105 M 181 104 L 182 105 M 182 104 L 183 105 M 183 104 L 184 105 M 193 104 L 194 105 M 194 104 L 195 105 M 27 105 L 28 106 M 28 105 L 29 106 M 29 105 L 30 106 M 55 105 L 56 106 M 147 105 L 148 106 M 154 105 L 155 106 M 183 105 L 184 106 M 184 105 L 185 106 M 194 105 L 195 106 M 195 105 L 196 106 M 29 106 L 30 107 M 30 106 L 31 107 M 53 106 L 54 107 M 54 106 L 55 107 M 55 106 L 56 107 M 147 106 L 148 107 M 154 106 L 155 107 M 155 106 L 156 107 M 184 106 L 185 107 M 185 106 L 186 107 M 195 106 L 196 107 M 196 106 L 197 107 M 31 107 L 32 108 M 32 107 L 33 108 M 33 107 L 34 108 M 51 107 L 52 108 M 52 107 L 53 108 M 53 107 L 54 108 M 147 107 L 148 108 M 155 107 L 156 108 M 156 107 L 157 108 M 185 107 L 186 108 M 186 107 L 187 108 M 196 107 L 197 108 M 197 107 L 198 108 M 34 108 L 35 109 M 35 108 L 36 109 M 36 108 L 37 109 M 37 108 L 38 109 M 38 108 L 39 109 M 47 108 L 48 109 M 48 108 L 49 109 M 49 108 L 50 109 M 50 108 L 51 109 M 147 108 L 148 109 M 156 108 L 157 109 M 157 108 L 158 109 M 186 108 L 187 109 M 187 108 L 188 109 M 197 108 L 198 109 M 39 109 L 40 110 M 40 109 L 41 110 M 41 109 L 42 110 M 42 109 L 43 110 M 43 109 L 44 110 M 44 109 L 45 110 M 45 109 L 46 110 M 46 109 L 47 110 M 54 109 L 55 110 M 147 109 L 148 110 M 157 109 L 158 110 M 158 109 L 159 110 M 187 109 L 188 110 M 188 109 L 189 110 M 197 109 L 198 110 M 198 109 L 199 110 M 53 110 L 54 111 M 147 110 L 148 111 M 158 110 L 159 111 M 159 110 L 160 111 M 160 110 L 161 111 M 188 110 L 189 111 M 189 110 L 190 111 M 198 110 L 199 111 M 199 110 L 200 111 M 53 111 L 54 112 M 69 111 L 70 112 M 70 111 L 71 112 M 71 111 L 72 112 M 72 111 L 73 112 M 73 111 L 74 112 M 74 111 L 75 112 M 75 111 L 76 112 M 76 111 L 77 112 M 147 111 L 148 112 M 160 111 L 161 112 M 161 111 L 162 112 M 189 111 L 190 112 M 190 111 L 191 112 M 199 111 L 200 112 M 53 112 L 54 113 M 68 112 L 69 113 M 69 112 L 70 113 M 76 112 L 77 113 M 77 112 L 78 113 M 147 112 L 148 113 M 161 112 L 162 113 M 162 112 L 163 113 M 163 112 L 164 113 M 190 112 L 191 113 M 191 112 L 192 113 M 52 113 L 53 114 M 67 113 L 68 114 M 68 113 L 69 114 M 77 113 L 78 114 M 78 113 L 79 114 M 147 113 L 148 114 M 163 113 L 164 114 M 164 113 L 165 114 M 191 113 L 192 114 M 192 113 L 193 114 M 52 114 L 53 115 M 66 114 L 67 115 M 67 114 L 68 115 M 78 114 L 79 115 M 79 114 L 80 115 M 147 114 L 148 115 M 164 114 L 165 115 M 165 114 L 166 115 M 166 114 L 167 115 M 192 114 L 193 115 M 193 114 L 194 115 M 52 115 L 53 116 M 66 115 L 67 116 M 79 115 L 80 116 M 148 115 L 149 116 M 166 115 L 167 116 M 167 115 L 168 116 M 168 115 L 169 116 M 192 115 L 193 116 M 52 116 L 53 117 M 66 116 L 67 117 M 79 116 L 80 117 M 148 116 L 149 117 M 149 116 L 150 117 M 169 116 L 170 117 M 170 116 L 171 117 M 171 116 L 172 117 M 188 116 L 189 117 M 189 116 L 190 117 M 190 116 L 191 117 M 191 116 L 192 117 M 51 117 L 52 118 M 66 117 L 67 118 M 79 117 L 80 118 M 147 117 L 148 118 M 149 117 L 150 118 M 150 117 L 151 118 M 172 117 L 173 118 M 173 117 L 174 118 M 174 117 L 175 118 M 175 117 L 176 118 M 176 117 L 177 118 M 177 117 L 178 118 M 178 117 L 179 118 M 179 117 L 180 118 M 180 117 L 181 118 M 181 117 L 182 118 M 182 117 L 183 118 M 183 117 L 184 118 M 184 117 L 185 118 M 185 117 L 186 118 M 186 117 L 187 118 M 187 117 L 188 118 M 51 118 L 52 119 M 66 118 L 67 119 M 79 118 L 80 119 M 147 118 L 148 119 M 150 118 L 151 119 M 51 119 L 52 120 M 66 119 L 67 120 M 79 119 L 80 120 M 147 119 L 148 120 M 150 119 L 151 120 M 151 119 L 152 120 M 51 120 L 52 121 M 67 120 L 68 121 M 79 120 L 80 121 M 146 120 L 147 121 M 149 120 L 150 121 M 152 120 L 153 121 M 153 120 L 154 121 M 50 121 L 51 122 M 67 121 L 68 122 M 68 121 L 69 122 M 78 121 L 79 122 M 79 121 L 80 122 M 113 121 L 114 122 M 114 121 L 115 122 M 115 121 L 116 122 M 116 121 L 117 122 M 117 121 L 118 122 M 146 121 L 147 122 M 149 121 L 150 122 M 153 121 L 154 122 M 154 121 L 155 122 M 198 121 L 199 122 M 199 121 L 200 122 M 50 122 L 51 123 M 68 122 L 69 123 M 69 122 L 70 123 M 77 122 L 78 123 M 78 122 L 79 123 M 110 122 L 111 123 M 111 122 L 112 123 M 112 122 L 113 123 M 118 122 L 119 123 M 119 122 L 120 123 M 146 122 L 147 123 M 149 122 L 150 123 M 154 122 L 155 123 M 155 122 L 156 123 M 156 122 L 157 123 M 197 122 L 198 123 M 198 122 L 199 123 M 50 123 L 51 124 M 69 123 L 70 124 M 70 123 L 71 124 M 71 123 L 72 124 M 76 123 L 77 124 M 77 123 L 78 124 M 109 123 L 110 124 M 110 123 L 111 124 M 119 123 L 120 124 M 120 123 L 121 124 M 146 123 L 147 124 M 149 123 L 150 124 M 156 123 L 157 124 M 157 123 L 158 124 M 195 123 L 196 124 M 196 123 L 197 124 M 197 123 L 198 124 M 49 124 L 50 125 M 72 124 L 73 125 M 73 124 L 74 125 M 74 124 L 75 125 M 75 124 L 76 125 M 109 124 L 110 125 M 120 124 L 121 125 M 146 124 L 147 125 M 149 124 L 150 125 M 157 124 L 158 125 M 158 124 L 159 125 M 159 124 L 160 125 M 193 124 L 194 125 M 194 124 L 195 125 M 195 124 L 196 125 M 49 125 L 50 126 M 109 125 L 110 126 M 120 125 L 121 126 M 145 125 L 146 126 M 149 125 L 150 126 M 159 125 L 160 126 M 160 125 L 161 126 M 161 125 L 162 126 M 191 125 L 192 126 M 192 125 L 193 126 M 193 125 L 194 126 M 49 126 L 50 127 M 108 126 L 109 127 M 121 126 L 122 127 M 145 126 L 146 127 M 149 126 L 150 127 M 161 126 L 162 127 M 162 126 L 163 127 M 163 126 L 164 127 M 189 126 L 190 127 M 190 126 L 191 127 M 49 127 L 50 128 M 108 127 L 109 128 M 121 127 L 122 128 M 145 127 L 146 128 M 149 127 L 150 128 M 164 127 L 165 128 M 165 127 L 166 128 M 166 127 L 167 128 M 185 127 L 186 128 M 186 127 L 187 128 M 187 127 L 188 128 M 188 127 L 189 128 M 48 128 L 49 129 M 108 128 L 109 129 M 121 128 L 122 129 M 145 128 L 146 129 M 149 128 L 150 129 M 167 128 L 168 129 M 168 128 L 169 129 M 169 128 L 170 129 M 170 128 L 171 129 M 171 128 L 172 129 M 172 128 L 173 129 M 180 128 L 181 129 M 181 128 L 182 129 M 182 128 L 183 129 M 183 128 L 184 129 M 184 128 L 185 129 M 48 129 L 49 130 M 108 129 L 109 130 M 121 129 L 122 130 M 144 129 L 145 130 M 149 129 L 150 130 M 173 129 L 174 130 M 174 129 L 175 130 M 175 129 L 176 130 M 176 129 L 177 130 M 177 129 L 178 130 M 178 129 L 179 130 M 179 129 L 180 130 M 48 130 L 49 131 M 108 130 L 109 131 M 121 130 L 122 131 M 144 130 L 145 131 M 149 130 L 150 131 M 47 131 L 48 132 M 108 131 L 109 132 M 109 131 L 110 132 M 121 131 L 122 132 M 144 131 L 145 132 M 149 131 L 150 132 M 47 132 L 48 133 M 109 132 L 110 133 M 110 132 L 111 133 M 120 132 L 121 133 M 144 132 L 145 133 M 149 132 L 150 133 M 47 133 L 48 134 M 110 133 L 111 134 M 111 133 L 112 134 M 119 133 L 120 134 M 120 133 L 121 134 M 144 133 L 145 134 M 149 133 L 150 134 M 46 134 L 47 135 M 111 134 L 112 135 M 112 134 L 113 135 M 113 134 L 114 135 M 117 134 L 118 135 M 118 134 L 119 135 M 119 134 L 120 135 M 143 134 L 144 135 M 149 134 L 150 135 M 46 135 L 47 136 M 114 135 L 115 136 M 115 135 L 116 136 M 116 135 L 117 136 M 143 135 L 144 136 M 149 135 L 150 136 M 46 136 L 47 137 M 143 136 L 144 137 M 149 136 L 150 137 M 45 137 L 46 138 M 143 137 L 144 138 M 149 137 L 150 138 M 45 138 L 46 139 M 142 138 L 143 139 M 149 138 L 150 139 M 45 139 L 46 140 M 142 139 L 143 140 M 150 139 L 151 140 M 45 140 L 46 141 M 142 140 L 143 141 M 150 140 L 151 141 M 44 141 L 45 142 M 142 141 L 143 142 M 150 141 L 151 142 M 44 142 L 45 143 M 141 142 L 142 143 M 150 142 L 151 143 M 44 143 L 45 144 M 141 143 L 142 144 M 150 143 L 151 144 M 43 144 L 44 145 M 141 144 L 142 145 M 150 144 L 151 145 M 43 145 L 44 146 M 141 145 L 142 146 M 150 145 L 151 146 M 43 146 L 44 147 M 60 146 L 61 147 M 61 146 L 62 147 M 62 146 L 63 147 M 63 146 L 64 147 M 64 146 L 65 147 M 65 146 L 66 147 M 66 146 L 67 147 M 67 146 L 68 147 M 68 146 L 69 147 M 69 146 L 70 147 M 70 146 L 71 147 M 71 146 L 72 147 M 72 146 L 73 147 M 73 146 L 74 147 M 74 146 L 75 147 M 75 146 L 76 147 M 76 146 L 77 147 M 77 146 L 78 147 M 140 146 L 141 147 M 150 146 L 151 147 M 43 147 L 44 148 M 57 147 L 58 148 M 58 147 L 59 148 M 59 147 L 60 148 M 78 147 L 79 148 M 79 147 L 80 148 M 80 147 L 81 148 M 81 147 L 82 148 M 82 147 L 83 148 M 83 147 L 84 148 M 140 147 L 141 148 M 150 147 L 151 148 M 42 148 L 43 149 M 54 148 L 55 149 M 55 148 L 56 149 M 56 148 L 57 149 M 84 148 L 85 149 M 85 148 L 86 149 M 86 148 L 87 149 M 87 148 L 88 149 M 88 148 L 89 149 M 140 148 L 141 149 M 150 148 L 151 149 M 42 149 L 43 150 M 52 149 L 53 150 M 53 149 L 54 150 M 54 149 L 55 150 M 89 149 L 90 150 M 90 149 L 91 150 M 91 149 L 92 150 M 92 149 L 93 150 M 139 149 L 140 150 M 150 149 L 151 150 M 42 150 L 43 151 M 51 150 L 52 151 M 52 150 L 53 151 M 93 150 L 94 151 M 94 150 L 95 151 M 95 150 L 96 151 M 139 150 L 140 151 M 150 150 L 151 151 M 41 151 L 42 152 M 49 151 L 50 152 M 50 151 L 51 152 M 51 151 L 52 152 M 96 151 L 97 152 M 97 151 L 98 152 M 98 151 L 99 152 M 99 151 L 100 152 M 139 151 L 140 152 M 150 151 L 151 152 M 41 152 L 42 153 M 48 152 L 49 153 M 49 152 L 50 153 M 100 152 L 101 153 M 101 152 L 102 153 M 102 152 L 103 153 M 139 152 L 140 153 M 150 152 L 151 153 M 41 153 L 42 154 M 47 153 L 48 154 M 48 153 L 49 154 M 103 153 L 104 154 M 104 153 L 105 154 M 105 153 L 106 154 M 138 153 L 139 154 M 150 153 L 151 154 M 40 154 L 41 155 M 47 154 L 48 155 M 105 154 L 106 155 M 106 154 L 107 155 M 107 154 L 108 155 M 138 154 L 139 155 M 150 154 L 151 155 M 40 155 L 41 156 M 46 155 L 47 156 M 47 155 L 48 156 M 107 155 L 108 156 M 108 155 L 109 156 M 138 155 L 139 156 M 150 155 L 151 156 M 40 156 L 41 157 M 45 156 L 46 157 M 46 156 L 47 157 M 108 156 L 109 157 M 109 156 L 110 157 M 138 156 L 139 157 M 151 156 L 152 157 M 40 157 L 41 158 M 45 157 L 46 158 M 63 157 L 64 158 M 64 157 L 65 158 M 65 157 L 66 158 M 66 157 L 67 158 M 109 157 L 110 158 M 110 157 L 111 158 M 111 157 L 112 158 M 137 157 L 138 158 M 151 157 L 152 158 M 40 158 L 41 159 M 44 158 L 45 159 M 45 158 L 46 159 M 60 158 L 61 159 M 61 158 L 62 159 M 62 158 L 63 159 M 67 158 L 68 159 M 68 158 L 69 159 M 111 158 L 112 159 M 112 158 L 113 159 M 137 158 L 138 159 M 151 158 L 152 159 M 39 159 L 40 160 M 44 159 L 45 160 M 59 159 L 60 160 M 60 159 L 61 160 M 68 159 L 69 160 M 69 159 L 70 160 M 70 159 L 71 160 M 112 159 L 113 160 M 113 159 L 114 160 M 137 159 L 138 160 M 151 159 L 152 160 M 39 160 L 40 161 M 43 160 L 44 161 M 58 160 L 59 161 M 59 160 L 60 161 M 70 160 L 71 161 M 113 160 L 114 161 M 136 160 L 137 161 M 151 160 L 152 161 M 39 161 L 40 162 M 43 161 L 44 162 M 58 161 L 59 162 M 70 161 L 71 162 M 71 161 L 72 162 M 113 161 L 114 162 M 114 161 L 115 162 M 136 161 L 137 162 M 151 161 L 152 162 M 39 162 L 40 163 M 43 162 L 44 163 M 58 162 L 59 163 M 71 162 L 72 163 M 72 162 L 73 163 M 114 162 L 115 163 M 115 162 L 116 163 M 136 162 L 137 163 M 151 162 L 152 163 M 39 163 L 40 164 M 43 163 L 44 164 M 57 163 L 58 164 M 72 163 L 73 164 M 115 163 L 116 164 M 136 163 L 137 164 M 151 163 L 152 164 M 39 164 L 40 165 M 42 164 L 43 165 M 57 164 L 58 165 M 72 164 L 73 165 M 96 164 L 97 165 M 97 164 L 98 165 M 98 164 L 99 165 M 99 164 L 100 165 M 100 164 L 101 165 M 101 164 L 102 165 M 115 164 L 116 165 M 116 164 L 117 165 M 135 164 L 136 165 M 151 164 L 152 165 M 38 165 L 39 166 M 42 165 L 43 166 M 57 165 L 58 166 M 72 165 L 73 166 M 93 165 L 94 166 M 94 165 L 95 166 M 95 165 L 96 166 M 102 165 L 103 166 M 103 165 L 104 166 M 116 165 L 117 166 M 135 165 L 136 166 M 151 165 L 152 166 M 38 166 L 39 167 M 42 166 L 43 167 M 57 166 L 58 167 M 72 166 L 73 167 M 92 166 L 93 167 M 93 166 L 94 167 M 103 166 L 104 167 M 104 166 L 105 167 M 116 166 L 117 167 M 135 166 L 136 167 M 151 166 L 152 167 M 38 167 L 39 168 M 42 167 L 43 168 M 58 167 L 59 168 M 72 167 L 73 168 M 91 167 L 92 168 M 92 167 L 93 168 M 104 167 L 105 168 M 105 167 L 106 168 M 117 167 L 118 168 M 134 167 L 135 168 M 151 167 L 152 168 M 42 168 L 43 169 M 58 168 L 59 169 M 71 168 L 72 169 M 91 168 L 92 169 M 105 168 L 106 169 M 117 168 L 118 169 M 134 168 L 135 169 M 152 168 L 153 169 M 42 169 L 43 170 M 58 169 L 59 170 M 59 169 L 60 170 M 71 169 L 72 170 M 90 169 L 91 170 M 91 169 L 92 170 M 105 169 L 106 170 M 117 169 L 118 170 M 134 169 L 135 170 M 152 169 L 153 170 M 38 170 L 39 171 M 42 170 L 43 171 M 59 170 L 60 171 M 70 170 L 71 171 M 71 170 L 72 171 M 90 170 L 91 171 M 105 170 L 106 171 M 118 170 L 119 171 M 133 170 L 134 171 M 152 170 L 153 171 M 36 171 L 37 172 M 38 171 L 39 172 M 42 171 L 43 172 M 59 171 L 60 172 M 60 171 L 61 172 M 69 171 L 70 172 M 70 171 L 71 172 M 90 171 L 91 172 M 105 171 L 106 172 M 118 171 L 119 172 M 133 171 L 134 172 M 152 171 L 153 172 M 36 172 L 37 173 M 39 172 L 40 173 M 42 172 L 43 173 M 60 172 L 61 173 M 61 172 L 62 173 M 62 172 L 63 173 M 67 172 L 68 173 M 68 172 L 69 173 M 69 172 L 70 173 M 90 172 L 91 173 M 105 172 L 106 173 M 118 172 L 119 173 M 133 172 L 134 173 M 152 172 L 153 173 M 36 173 L 37 174 M 39 173 L 40 174 M 42 173 L 43 174 M 62 173 L 63 174 M 63 173 L 64 174 M 64 173 L 65 174 M 65 173 L 66 174 M 66 173 L 67 174 M 67 173 L 68 174 M 90 173 L 91 174 M 105 173 L 106 174 M 118 173 L 119 174 M 133 173 L 134 174 M 152 173 L 153 174 M 35 174 L 36 175 M 39 174 L 40 175 M 43 174 L 44 175 M 90 174 L 91 175 M 104 174 L 105 175 M 105 174 L 106 175 M 118 174 L 119 175 M 132 174 L 133 175 M 152 174 L 153 175 M 35 175 L 36 176 M 40 175 L 41 176 M 43 175 L 44 176 M 44 175 L 45 176 M 90 175 L 91 176 M 91 175 L 92 176 M 104 175 L 105 176 M 118 175 L 119 176 M 132 175 L 133 176 M 152 175 L 153 176 M 35 176 L 36 177 M 40 176 L 41 177 M 44 176 L 45 177 M 91 176 L 92 177 M 103 176 L 104 177 M 104 176 L 105 177 M 118 176 L 119 177 M 132 176 L 133 177 M 152 176 L 153 177 M 34 177 L 35 178 M 40 177 L 41 178 M 41 177 L 42 178 M 44 177 L 45 178 M 45 177 L 46 178 M 91 177 L 92 178 M 92 177 L 93 178 M 102 177 L 103 178 M 103 177 L 104 178 M 118 177 L 119 178 M 131 177 L 132 178 M 153 177 L 154 178 M 34 178 L 35 179 M 41 178 L 42 179 M 45 178 L 46 179 M 46 178 L 47 179 M 92 178 L 93 179 M 93 178 L 94 179 M 94 178 L 95 179 M 100 178 L 101 179 M 101 178 L 102 179 M 102 178 L 103 179 M 117 178 L 118 179 M 131 178 L 132 179 M 153 178 L 154 179 M 34 179 L 35 180 M 41 179 L 42 180 M 42 179 L 43 180 M 46 179 L 47 180 M 94 179 L 95 180 M 95 179 L 96 180 M 96 179 L 97 180 M 97 179 L 98 180 M 98 179 L 99 180 M 99 179 L 100 180 M 100 179 L 101 180 M 117 179 L 118 180 M 131 179 L 132 180 M 153 179 L 154 180 M 33 180 L 34 181 M 42 180 L 43 181 M 46 180 L 47 181 M 47 180 L 48 181 M 117 180 L 118 181 M 130 180 L 131 181 M 153 180 L 154 181 M 33 181 L 34 182 M 42 181 L 43 182 M 43 181 L 44 182 M 47 181 L 48 182 M 48 181 L 49 182 M 117 181 L 118 182 M 130 181 L 131 182 M 153 181 L 154 182 M 33 182 L 34 183 M 43 182 L 44 183 M 44 182 L 45 183 M 48 182 L 49 183 M 49 182 L 50 183 M 116 182 L 117 183 M 130 182 L 131 183 M 153 182 L 154 183 M 33 183 L 34 184 M 44 183 L 45 184 M 49 183 L 50 184 M 50 183 L 51 184 M 51 183 L 52 184 M 116 183 L 117 184 M 129 183 L 130 184 M 153 183 L 154 184 M 32 184 L 33 185 M 44 184 L 45 185 M 45 184 L 46 185 M 51 184 L 52 185 M 52 184 L 53 185 M 115 184 L 116 185 M 116 184 L 117 185 M 129 184 L 130 185 M 154 184 L 155 185 M 32 185 L 33 186 M 45 185 L 46 186 M 46 185 L 47 186 M 52 185 L 53 186 M 53 185 L 54 186 M 114 185 L 115 186 M 115 185 L 116 186 M 128 185 L 129 186 M 129 185 L 130 186 M 154 185 L 155 186 M 32 186 L 33 187 M 46 186 L 47 187 M 47 186 L 48 187 M 53 186 L 54 187 M 54 186 L 55 187 M 55 186 L 56 187 M 113 186 L 114 187 M 114 186 L 115 187 M 128 186 L 129 187 M 154 186 L 155 187 M 31 187 L 32 188 M 47 187 L 48 188 M 48 187 L 49 188 M 49 187 L 50 188 M 55 187 L 56 188 M 56 187 L 57 188 M 57 187 L 58 188 M 112 187 L 113 188 M 113 187 L 114 188 M 127 187 L 128 188 M 128 187 L 129 188 M 154 187 L 155 188 M 31 188 L 32 189 M 49 188 L 50 189 M 50 188 L 51 189 M 57 188 L 58 189 M 58 188 L 59 189 M 59 188 L 60 189 M 111 188 L 112 189 M 112 188 L 113 189 M 126 188 L 127 189 M 127 188 L 128 189 M 154 188 L 155 189 M 31 189 L 32 190 M 50 189 L 51 190 M 51 189 L 52 190 M 60 189 L 61 190 M 61 189 L 62 190 M 110 189 L 111 190 M 111 189 L 112 190 M 126 189 L 127 190 M 154 189 L 155 190 M 30 190 L 31 191 M 51 190 L 52 191 M 52 190 L 53 191 M 62 190 L 63 191 M 63 190 L 64 191 M 64 190 L 65 191 M 65 190 L 66 191 M 108 190 L 109 191 M 109 190 L 110 191 M 110 190 L 111 191 M 125 190 L 126 191 M 126 190 L 127 191 M 155 190 L 156 191 M 30 191 L 31 192 M 52 191 L 53 192 M 53 191 L 54 192 M 54 191 L 55 192 M 66 191 L 67 192 M 67 191 L 68 192 M 68 191 L 69 192 M 69 191 L 70 192 M 70 191 L 71 192 M 71 191 L 72 192 M 106 191 L 107 192 M 107 191 L 108 192 M 108 191 L 109 192 M 125 191 L 126 192 M 155 191 L 156 192 M 30 192 L 31 193 M 54 192 L 55 193 M 55 192 L 56 193 M 72 192 L 73 193 M 73 192 L 74 193 M 74 192 L 75 193 M 75 192 L 76 193 M 76 192 L 77 193 M 77 192 L 78 193 M 78 192 L 79 193 M 104 192 L 105 193 M 105 192 L 106 193 M 106 192 L 107 193 M 124 192 L 125 193 M 125 192 L 126 193 M 155 192 L 156 193 M 30 193 L 31 194 M 31 193 L 32 194 M 32 193 L 33 194 M 33 193 L 34 194 M 34 193 L 35 194 M 35 193 L 36 194 M 36 193 L 37 194 M 37 193 L 38 194 M 38 193 L 39 194 M 39 193 L 40 194 M 40 193 L 41 194 M 41 193 L 42 194 M 42 193 L 43 194 M 43 193 L 44 194 M 44 193 L 45 194 M 45 193 L 46 194 M 46 193 L 47 194 M 47 193 L 48 194 M 48 193 L 49 194 M 49 193 L 50 194 M 50 193 L 51 194 M 51 193 L 52 194 M 52 193 L 53 194 M 53 193 L 54 194 M 54 193 L 55 194 M 57 193 L 58 194 M 79 193 L 80 194 M 80 193 L 81 194 M 81 193 L 82 194 M 82 193 L 83 194 M 83 193 L 84 194 M 84 193 L 85 194 M 85 193 L 86 194 M 101 193 L 102 194 M 102 193 L 103 194 M 103 193 L 104 194 M 109 193 L 110 194 M 123 193 L 124 194 M 124 193 L 125 194 M 155 193 L 156 194 M 0 194 L 1 195 M 1 194 L 2 195 M 2 194 L 3 195 M 3 194 L 4 195 M 4 194 L 5 195 M 5 194 L 6 195 M 6 194 L 7 195 M 7 194 L 8 195 M 8 194 L 9 195 M 9 194 L 10 195 M 86 194 L 87 195 M 87 194 L 88 195 M 88 194 L 89 195 M 89 194 L 90 195 M 90 194 L 91 195 M 91 194 L 92 195 M 92 194 L 93 195 M 93 194 L 94 195 M 94 194 L 95 195 M 95 194 L 96 195 M 96 194 L 97 195 M 97 194 L 98 195 M 98 194 L 99 195 M 99 194 L 100 195 M 100 194 L 101 195 M 108 194 L 109 195 M 123 194 L 124 195 M 156 194 L 157 195 M 10 195 L 11 196 M 11 195 L 12 196 M 12 195 L 13 196 M 13 195 L 14 196 M 14 195 L 15 196 M 15 195 L 16 196 M 16 195 L 17 196 M 17 195 L 18 196 M 18 195 L 19 196 M 19 195 L 20 196 M 20 195 L 21 196 M 21 195 L 22 196 M 22 195 L 23 196 M 23 195 L 24 196 M 24 195 L 25 196 M 25 195 L 26 196 M 26 195 L 27 196 M 27 195 L 28 196 M 28 195 L 29 196 M 29 195 L 30 196 M 30 195 L 31 196 M 31 195 L 32 196 M 32 195 L 33 196 M 33 195 L 34 196 M 34 195 L 35 196 M 35 195 L 36 196 M 36 195 L 37 196 M 37 195 L 38 196 M 38 195 L 39 196 M 39 195 L 40 196 M 40 195 L 41 196 M 41 195 L 42 196 M 42 195 L 43 196 M 49 195 L 50 196 M 50 195 L 51 196 M 51 195 L 52 196 M 52 195 L 53 196 M 53 195 L 54 196 M 54 195 L 55 196 M 55 195 L 56 196 M 56 195 L 57 196 M 57 195 L 58 196 M 58 195 L 59 196 M 59 195 L 60 196 M 60 195 L 61 196 M 61 195 L 62 196 M 62 195 L 63 196 M 63 195 L 64 196 M 64 195 L 65 196 M 65 195 L 66 196 M 66 195 L 67 196 M 67 195 L 68 196 M 68 195 L 69 196 M 69 195 L 70 196 M 70 195 L 71 196 M 71 195 L 72 196 M 72 195 L 73 196 M 73 195 L 74 196 M 74 195 L 75 196 M 106 195 L 107 196 M 107 195 L 108 196 M 122 195 L 123 196 M 123 195 L 124 196 M 156 195 L 157 196 M 75 196 L 76 197 M 76 196 L 77 197 M 77 196 L 78 197 M 80 196 L 81 197 M 81 196 L 82 197 M 82 196 L 83 197 M 83 196 L 84 197 M 84 196 L 85 197 M 104 196 L 105 197 M 105 196 L 106 197 M 106 196 L 107 197 M 121 196 L 122 197 M 122 196 L 123 197 M 156 196 L 157 197 M 77 197 L 78 198 M 78 197 L 79 198 M 85 197 L 86 198 M 86 197 L 87 198 M 87 197 L 88 198 M 88 197 L 89 198 M 101 197 L 102 198 M 102 197 L 103 198 M 103 197 L 104 198 M 104 197 L 105 198 M 120 197 L 121 198 M 121 197 L 122 198 M 156 197 L 157 198 M 78 198 L 79 199 M 79 198 L 80 199 M 89 198 L 90 199 M 90 198 L 91 199 M 91 198 L 92 199 M 92 198 L 93 199 M 93 198 L 94 199 M 94 198 L 95 199 M 95 198 L 96 199 M 96 198 L 97 199 M 97 198 L 98 199 M 98 198 L 99 199 M 99 198 L 100 199 M 100 198 L 101 199 M 120 198 L 121 199 M 157 198 L 158 199 M 79 199 L 80 200 M 80 199 L 81 200 M 119 199 L 120 200 M 120 199 L 121 200 M 157 199 L 158 200" fill="none" stroke="black" stroke-width="10" /></svg>