<svg xmlns="http://www.w3.org/2000/svg" viewBox="0 0 200 200" width="200" height="200">
  <rect width="100%" height="100%" fill="#8ED6FF"/>
  <path fill="#FFFFFF" d="M60 70 C40 20, 160 20, 140 70 Q160 80, 140 90 Q130 120, 70 90 Q60 80, 60 70" stroke="black" stroke-width="2"/>
  <circle cx="80" cy="100" r="8" fill="black"/>
  <circle cx="120" cy="100" r="8" fill="black"/>
  <ellipse cx="100" cy="140" rx="10" ry="15" fill="black"/>
  <path d="M90 150 C90 160, 110 160, 110 150" fill="none" stroke="black" stroke-width="2"/>
  <path fill="#F4A7B9" d="M40 60 Q30 70, 40 80 Q50 70, 40 60"/>
  <path fill="#F4A7B9" d="M160 60 Q150 70, 160 80 Q170 70, 160 60"/>
</svg>
